<svg xmlns="http://www.w3.org/2000/svg" viewBox="0 0 20.53 25.39"><defs><style>.cls-1{fill:#fff;}.cls-2{fill:#e42313;}.cls-3{fill:#ffed00;}.cls-4{fill:#004b93;}</style></defs><g id="Layer_2" data-name="Layer 2"><g id="a_w" data-name="a/w"><path class="cls-1" d="M.93.63C.91,1.22.8,4.29.8,4.29.72,6.43.65,8.31.65,10c0,7.36,1.42,10.72,9.62,14.69,8.19-4,9.62-7.33,9.62-14.69,0-1.68-.08-3.56-.16-5.7,0,0-.11-3.07-.13-3.66Z"/><path class="cls-2" d="M19,1.27H1.53L1.35,6.14H19.22ZM10.86,5.82l0-.05a1.82,1.82,0,0,0,.3-.16,1.33,1.33,0,0,0,.62-1.05,1.41,1.41,0,0,0-1.52-1.3,1.43,1.43,0,0,0-1.53,1.3,1.33,1.33,0,0,0,.62,1.05,2.13,2.13,0,0,0,.31.16l0,.05a2.08,2.08,0,0,1-.32-.17,1.8,1.8,0,0,1-.91-1.48,1.77,1.77,0,0,1,1.85-1.65,1.76,1.76,0,0,1,1.84,1.65,1.79,1.79,0,0,1-.9,1.48A2.8,2.8,0,0,1,10.86,5.82Zm.43-.1v0a1.92,1.92,0,0,0,.9-1.51,1.85,1.85,0,0,0-1.94-1.74,1.87,1.87,0,0,0-2,1.74A1.91,1.91,0,0,0,9.2,5.68v0A2.23,2.23,0,0,1,7.8,3.81a2.31,2.31,0,0,1,2.45-2.07,2.29,2.29,0,0,1,2.42,2.07A2.23,2.23,0,0,1,11.29,5.72Z"/><path class="cls-2" d="M10.2,9.69h.08a.74.74,0,0,1,.56-.26c.37,0,.78.16,1.11.16a1,1,0,0,0,.56-.19V6.67c.05.14.22.29.34.28V9.66a.84.84,0,0,1-.49.15c-.45,0-1-.19-1.45-.19a.86.86,0,0,0-.67.27.85.85,0,0,0-.67-.27c-.46,0-1,.21-1.45.19a.84.84,0,0,1-.49-.15V7A.5.5,0,0,0,8,6.67V9.4a.84.84,0,0,0,.55.19c.34,0,.76-.16,1.11-.16A.8.8,0,0,1,10.2,9.69Z"/><path class="cls-2" d="M17,17.91a.45.45,0,0,0-.36-.33.6.6,0,0,1,.08.08.55.55,0,0,1-.1.7.29.29,0,0,0-.37-.37.32.32,0,0,1,.11.36.34.34,0,0,1-.36.24c-.21,0-.09-.32-.1-.5a.47.47,0,0,0-.29-.43s0,0,0,0a.73.73,0,0,0,.28.06.42.42,0,0,0,.33-.16.35.35,0,0,0,.06-.31l-.11.13a.4.4,0,0,1-.4,0,1.12,1.12,0,0,1-.36-.33,5.46,5.46,0,0,0-1.2-1.24,2,2,0,0,0-1-.32.94.94,0,0,0-.58.15.91.91,0,0,0-.41.65,1.18,1.18,0,0,0,.24.81,3.44,3.44,0,0,0,.89.72,8.12,8.12,0,0,1,.67.48.91.91,0,0,1,.37.51.42.42,0,0,1-.13.41.67.67,0,0,1-.67,0,1.36,1.36,0,0,0-1.2-1.16,3.54,3.54,0,0,1-.87-.28,1,1,0,0,1-.52-.54.55.55,0,0,1-.23,0,.46.46,0,0,1-.28-.31.6.6,0,0,0,.48.19.57.57,0,0,0,.48-.22.6.6,0,0,1-.41,0,.38.38,0,0,1-.17-.34.68.68,0,0,0,.76.1.52.52,0,0,0,.17-.16.49.49,0,0,1-.37-.09.38.38,0,0,1-.15-.34.63.63,0,0,0,.44.15.4.4,0,0,0,.38-.22.47.47,0,0,1-.35-.06.33.33,0,0,1-.17-.27.53.53,0,0,1-.37-.19,1.17,1.17,0,0,0-.11.66.54.54,0,0,1-.53-.44.72.72,0,0,0-.07.63.61.61,0,0,1-.59-.45,1,1,0,0,0-.06.36.52.52,0,0,0,0,.17.36.36,0,0,1-.19-.08.63.63,0,0,1-.26-.44.92.92,0,0,0,.31.31.71.71,0,0,1,.27-.62c0,.31.1.49.35.56a.7.7,0,0,1,.06-.45.68.68,0,0,1,.22-.29.56.56,0,0,0,.33.56,1.36,1.36,0,0,1,.11-.56.39.39,0,0,1,.13-.17c.06.2.32.3.55.31a.57.57,0,0,0,.66-.5.81.81,0,0,1-.41.11.35.35,0,0,1-.33-.2.75.75,0,0,0,.59-.13.55.55,0,0,0,.21-.34.33.33,0,0,0-.1-.3c-.11.27-.71.41-.91.14A.52.52,0,0,0,12,14a.38.38,0,0,0,0-.19.78.78,0,0,1-.38.11.59.59,0,0,1-.36-.08c.15,0,.45-.17.43-.36a.58.58,0,0,1-.16,0,.81.81,0,0,1-.5-.08s.07-.48,0-.53a1.08,1.08,0,0,0-.48.42,1.8,1.8,0,0,0-.42,0,1.14,1.14,0,0,0-.42.07.79.79,0,0,0-.15.12c-.05,0-.06.12-.11.15a1,1,0,0,1-.44.1c-.12,0-.27,0-.3.09s0,.14.07.19l.07.13A.88.88,0,0,0,9,14.3c.15.23.3.13.46.08a2.14,2.14,0,0,1,.64-.13.7.7,0,0,1,.37.09.4.4,0,0,1,.14.31.43.43,0,0,1-.13.28.71.71,0,0,1-.43.13c-.27,0-.54-.12-.78-.13a.22.22,0,0,0-.16.05.18.18,0,0,0,0,.26c.24,0,.23.26.2.39a.44.44,0,0,1-.47.3.54.54,0,0,1-.34-.14.45.45,0,0,0,.42.63.46.46,0,0,1-.68-.19.34.34,0,0,0-.06.17c0,.42.31.59.74.57a1.41,1.41,0,0,1-.86,0,3,3,0,0,1-.58-.24,1.42,1.42,0,0,1-.58-.5.57.57,0,0,1-.07-.29c0-.32.38-.36.33-.73a.47.47,0,0,0-.59.3.57.57,0,0,0,0,.23c-.09-.08-.18-.19-.28-.27A.33.33,0,0,0,6,15.33a.44.44,0,0,1-.09.15l-.12.12a.24.24,0,0,0,.08.14c.08.07.24.11.3.22a.16.16,0,0,1,0,.12.41.41,0,0,1-.19,0c-.19-.05-.34-.23-.57-.24a.23.23,0,0,0-.23.08.34.34,0,0,1,0,.34.23.23,0,0,0,.2.12c.13,0,.28,0,.41,0a.23.23,0,0,1,.16.06.6.6,0,0,1-.22.12c-.18,0-.4-.1-.55,0a.22.22,0,0,1,0,.16.67.67,0,0,1-.06.15.36.36,0,0,0,.25.1,1.67,1.67,0,0,0,.5-.15.59.59,0,0,1,.22-.05.86.86,0,0,1-.59.35H5.42s.06.06.08.07a.65.65,0,0,0,.22.05A1.52,1.52,0,0,0,6.54,17a.79.79,0,0,1-.52.4s.08,0,.13,0a1.42,1.42,0,0,0,.95-.25.49.49,0,0,1-.24.33.48.48,0,0,1-.18.06c.07.08.26.08.38.07a3.94,3.94,0,0,0,.47-.1c.22,0,.36,0,.5-.06l-.48.19A4.79,4.79,0,0,0,7,18c-.19.1-.35.24-.52.32A.36.36,0,0,1,6,18.19.71.71,0,0,1,5.92,18a.4.4,0,0,0-.39-.34.46.46,0,0,1-.23.31c0,.3.41.29.45.6a.24.24,0,0,1-.17,0,2.28,2.28,0,0,0-.41-.11.39.39,0,0,0-.23.07.2.2,0,0,1,.06.11.29.29,0,0,1,0,.26.28.28,0,0,0,.21.08c.14,0,.3-.05.42-.06a.36.36,0,0,1,.23,0c-.08.19-.36.17-.57.22a.31.31,0,0,0-.22.16.32.32,0,0,1,.23.35.36.36,0,0,0,.19,0c.19-.08.29-.27.47-.33,0,.2-.13.31-.16.48a.62.62,0,0,0,0,.19.53.53,0,0,1,.19,0,.26.26,0,0,1,.17.06.35.35,0,0,0,.1-.19,2.93,2.93,0,0,0,0-.41c0-.08,0-.11.06-.12A1,1,0,0,0,6.93,19a.91.91,0,0,1-.19.35l-.12.12a.66.66,0,0,0,.43-.1,1.54,1.54,0,0,0,.58-.66.63.63,0,0,1-.13.58.36.36,0,0,0,.17,0,.86.86,0,0,0,.43-.45,1.31,1.31,0,0,0,.12-.38.49.49,0,0,1,0,.52l-.06.1a.57.57,0,0,0,.31-.18.89.89,0,0,0,.25-.67.64.64,0,0,1,.09.63.64.64,0,0,0,.31-.2.78.78,0,0,0,.23-.39.77.77,0,0,0,0-.33.35.35,0,0,1,.07.15.77.77,0,0,1-.21.72l-.11.09a.82.82,0,0,0,.65.27A6,6,0,0,0,11,18.92l-.44.23a1.53,1.53,0,0,1-.66.18.74.74,0,0,1-.36-.06.5.5,0,0,0-.09.4c0,.22.16.37.1.61-.12.44-.9.38-1.19.16s-.22-.59-.43-.77a.42.42,0,0,0-.26-.08.62.62,0,0,1-.24.29.32.32,0,0,0,.1.19c.09.1.21.15.29.26a.43.43,0,0,1,.06.17.46.46,0,0,1-.21-.05c-.16-.07-.28-.23-.46-.27a.61.61,0,0,0-.23,0,.32.32,0,0,1-.11.31.51.51,0,0,0,.49.29c.13,0,.28,0,.36.09-.18.2-.47,0-.73,0a.32.32,0,0,0-.19.05.34.34,0,0,1,0,.14.47.47,0,0,1,0,.21c0,.07.16.11.23.12a.53.53,0,0,0,.18,0,3.1,3.1,0,0,1,.58-.15s.08,0,.09,0-.21.17-.3.27a.31.31,0,0,0-.08.15.23.23,0,0,1,.29.12.24.24,0,0,0,.19,0c.1-.07.16-.23.23-.31s0-.07.1-.06.06.07.1.12A.76.76,0,0,0,9,21.8a.37.37,0,0,0,.22-.12.51.51,0,0,1-.38-.33,1,1,0,0,0,.68.18.19.19,0,0,0,.12-.05A.36.36,0,0,1,9.4,21a.61.61,0,0,0,.45.29.34.34,0,0,0,.2,0,.33.33,0,0,1-.09-.11.36.36,0,0,1,0-.18c0-.17.25-.21.4-.23a2.54,2.54,0,0,0,.56-.05c.13-.05.24-.14.23-.27a.42.42,0,0,1-.26.07.23.23,0,0,1-.22-.25c0-.2.12-.29.36-.31a.88.88,0,0,1,.36.06l.16.05a.63.63,0,0,1,.05-.47,4.69,4.69,0,0,0,.22-.46.37.37,0,0,1,0,.11c0,.19-.1.3-.12.52a.44.44,0,0,0,.13.36c.19.15.49.2.6.45a.48.48,0,0,1-.09.47,1.45,1.45,0,0,1-.56.45.41.41,0,0,1-.28.05c-.19-.07-.26-.43-.43-.54a.28.28,0,0,0-.24,0,.26.26,0,0,1-.07.16l-.1.09a.33.33,0,0,0,.08.17c.1.08.29.13.33.25a.12.12,0,0,1-.1,0c-.21,0-.31-.18-.5-.2a.28.28,0,0,0-.18,0,.28.28,0,0,1,0,.13.67.67,0,0,1-.06.12c0,.16.29.17.51.19a.18.18,0,0,1,.16.06.38.38,0,0,1-.2.1c-.16,0-.3-.06-.45-.07a.37.37,0,0,0-.17,0,.32.32,0,0,1,0,.17.24.24,0,0,1,0,.13.37.37,0,0,0,.19.08c.21,0,.39-.17.61-.09-.09.14-.24.15-.37.22a.54.54,0,0,0-.14.16.27.27,0,0,1,.12.09.46.46,0,0,1,.05.14c.26,0,.39-.16.52-.3a1.14,1.14,0,0,1,.81-.36c.39,0,.89.16,1.07-.18-.22,0-.47-.05-.55-.2a1.08,1.08,0,0,0,1-.24.61.61,0,0,1-.64-.18,1.07,1.07,0,0,0,.83-.1.7.7,0,0,0,.35-.39l-.1,0c-.19.08-.52.07-.6-.08a.81.81,0,0,0,.45-.09.8.8,0,0,0,.3-.32,1.94,1.94,0,0,1,.21-.34.26.26,0,0,1,.11-.08s-.1,0-.15,0c-.24.05-.35.27-.57.32a3.2,3.2,0,0,0,.13-.83.87.87,0,0,0,1.06-.24.84.84,0,0,0,.16-.51,1,1,0,0,0-.3-.66,5.09,5.09,0,0,0-.94-.72c-.22-.16-.46-.32-.65-.49a.93.93,0,0,1-.31-.5.53.53,0,0,1,.35-.61c.69-.21,1.39.53,1.73.92.07.09.35.41.24.62a.21.21,0,0,1-.17.09c-.1,0-.18-.11-.11-.26a.32.32,0,0,0-.15.47.32.32,0,0,0,.31.11.32.32,0,0,0,.21-.14,1,1,0,0,0,.2,1A1,1,0,0,0,16,19a1,1,0,0,0,.9-.34A.82.82,0,0,0,17,17.91Zm-7-4a.3.3,0,0,1,0-.3,1,1,0,0,0,.41.13A1.36,1.36,0,0,0,10.05,13.92Z"/><path class="cls-3" d="M16.53,1.58,14.61,3.75l1.92,2.18,1.89-2.18ZM15.38,3.75l1.14-1.28,1.13,1.3L16.54,5.05Z"/><path class="cls-3" d="M2.24,3.75,4.17,5.93,6.06,3.75,4.17,1.58Zm1.94,1.3L3,3.75,4.16,2.47l1.13,1.3Z"/><path class="cls-4" d="M5.76,19.93a.64.64,0,0,0,.17.37.3.3,0,0,0,.19.08.44.44,0,0,1,0-.43A.33.33,0,0,0,5.76,19.93Z"/><path class="cls-4" d="M6.41,21.38c.19-.19.34-.09.34-.09a.29.29,0,0,0,0-.35A.42.42,0,0,0,6.41,21.38Z"/><path class="cls-4" d="M6,15.33a.49.49,0,0,0-.6.27.51.51,0,0,1,.39,0A.49.49,0,0,0,6,15.33Z"/><path class="cls-4" d="M4.87,17.87a.57.57,0,0,1,.43.05.38.38,0,0,0,.23-.31l-.15,0A.53.53,0,0,0,4.87,17.87Z"/><path class="cls-4" d="M6.74,15.24a.64.64,0,0,1,.39-.06A.3.3,0,0,0,7,15a.63.63,0,0,0-.34-.08.33.33,0,0,0-.17,0C6.56,15,6.7,15.09,6.74,15.24Z"/><path class="cls-4" d="M6.42,20.5a.49.49,0,0,1,.22,0,.59.59,0,0,1,.19,0c.09,0,.18-.22.11-.31A.54.54,0,0,0,6.42,20.5Z"/><path class="cls-4" d="M7.63,19.59a.7.7,0,0,0-.5,0,.8.8,0,0,0-.19.15.61.61,0,0,1,.45.1C7.48,19.86,7.64,19.71,7.63,19.59Z"/><path class="cls-4" d="M10.24,10.21a.54.54,0,0,0,.46-.28h2.45V7h-.3v2.6a.78.78,0,0,1-.54.16c-.44,0-.94-.2-1.39-.2a.86.86,0,0,0-.67.26.88.88,0,0,0-.65-.26c-.44,0-1,.19-1.49.19a.79.79,0,0,1-.46-.15V7H7.35V9.93H9.78A.52.52,0,0,0,10.24,10.21Z"/><path class="cls-4" d="M5,18.85a.26.26,0,0,0,0-.37.58.58,0,0,0-.28.19.45.45,0,0,0-.11.32.5.5,0,0,1,.22-.13A.38.38,0,0,1,5,18.85Z"/><path class="cls-4" d="M20.38,4.31,20.22,0H.31L.15,4.31c-.45,11.58-.61,15.92,10,21l.16.08.15-.08C21,20.23,20.83,15.89,20.38,4.31ZM10.27,24.68C2.07,20.71.65,17.35.65,10c0-1.68.07-3.56.15-5.7,0,0,.11-3.07.13-3.66H19.6c0,.59.13,3.66.13,3.66.08,2.14.16,4,.16,5.7C19.89,17.35,18.46,20.71,10.27,24.68Z"/><path class="cls-4" d="M4.65,16.91a.92.92,0,0,1,.46,0s.13-.18,0-.31A.6.6,0,0,0,4.65,16.91Z"/><path class="cls-4" d="M5.16,16.27s.13-.2,0-.34a.5.5,0,0,0-.4.42l.14-.07A.54.54,0,0,1,5.16,16.27Z"/><path class="cls-4" d="M10.25,11.86l8.24,4.84c1-2.54.93-5.7.77-10.15Z"/><path class="cls-4" d="M5,19.28a.54.54,0,0,0-.14.48A.18.18,0,0,0,5,19.9a.33.33,0,0,1,.28-.27A.3.3,0,0,0,5,19.28Z"/><path class="cls-4" d="M9.6,22.48a.48.48,0,0,1,.15-.09.33.33,0,0,1,.26,0,.3.3,0,0,0,0-.3A.5.5,0,0,0,9.6,22.48Z"/><path class="cls-4" d="M10.3,22.75a.58.58,0,0,0-.2.45.22.22,0,0,0,.08.12.55.55,0,0,1,.29-.34A.25.25,0,0,0,10.3,22.75Z"/><path class="cls-4" d="M9.66,14.82a1.4,1.4,0,0,1-.09.17l.17,0Z"/><path class="cls-4" d="M7.45,21.71s-.08.34.15.44a.33.33,0,0,1,.14-.32A.21.21,0,0,0,7.45,21.71Z"/><path class="cls-4" d="M10.25,14.79c0,.06-.05.2-.09.27a.35.35,0,0,0,.2-.07A2,2,0,0,1,10.25,14.79Z"/><path class="cls-4" d="M10.34,21.18a.32.32,0,0,1,.3,0,.29.29,0,0,0,.17-.25C10.61,20.9,10.37,21,10.34,21.18Z"/><path class="cls-4" d="M2,16.7l8.21-4.84-9-5.27C1.11,11,1.1,14.17,2,16.7Z"/><path class="cls-4" d="M9.69,14.3l.07.2.11-.23A.48.48,0,0,0,9.69,14.3Z"/><path class="cls-4" d="M9.4,14.39l.09.15.07-.2A.25.25,0,0,0,9.4,14.39Z"/><path class="cls-4" d="M10,14.82c0,.07-.08.19-.09.24a.58.58,0,0,0,.18,0A1.14,1.14,0,0,1,10,14.82Z"/><path class="cls-4" d="M10,14.26s.06.15.09.21a2.25,2.25,0,0,1,.12-.21A.37.37,0,0,0,10,14.26Z"/><path class="cls-4" d="M9.78,21.76a.43.43,0,0,1,.42,0,.28.28,0,0,0,.07-.25A.39.39,0,0,0,9.78,21.76Z"/><path class="cls-4" d="M10.47,14.54a1,1,0,0,0-.29,0,4.9,4.9,0,0,1-1,.1c-.21,0-.51-.09-.52-.38a.46.46,0,0,1,.06-.21.34.34,0,0,0-.25.37c0,.23.23.37.64.38a4.69,4.69,0,0,0,1.09-.16A1.2,1.2,0,0,0,10.47,14.54Z"/><path class="cls-4" d="M11.4,8.17a1.6,1.6,0,0,0,.89,0V8.13a1.38,1.38,0,0,1-.87,0,1.33,1.33,0,0,0-1,0v.09A1.15,1.15,0,0,1,11.4,8.17Z"/><path class="cls-4" d="M9.64,9.43a.8.8,0,0,1,.56.26h.08a.74.74,0,0,1,.56-.26c.37,0,.78.16,1.11.16a1,1,0,0,0,.56-.19V6.67l-.06,0a1.13,1.13,0,0,1-1,.06,1.11,1.11,0,0,0-1.18.17,1.11,1.11,0,0,0-1.18-.17,1.13,1.13,0,0,1-1-.06l0,0V9.4a.84.84,0,0,0,.55.19C8.87,9.59,9.29,9.43,9.64,9.43ZM10.28,7c.32-.33.71-.25,1.12-.15a1.26,1.26,0,0,0,1,0V9.37a1.2,1.2,0,0,1-1,.07,1.17,1.17,0,0,0-1.14.15ZM8,9.37V6.8a1.26,1.26,0,0,0,1,0c.42-.1.8-.2,1.13.16V9.59a1.18,1.18,0,0,0-1.15-.15A1.13,1.13,0,0,1,8,9.37Z"/><path class="cls-4" d="M9.08,8.17a1.15,1.15,0,0,1,1,0V8.1a1.33,1.33,0,0,0-1,0,1.38,1.38,0,0,1-.87,0v.08A1.6,1.6,0,0,0,9.08,8.17Z"/><path class="cls-4" d="M9.08,7.49a1.15,1.15,0,0,1,1,0V7.42a1.33,1.33,0,0,0-1,0,1.38,1.38,0,0,1-.87,0v.08A1.6,1.6,0,0,0,9.08,7.49Z"/><path class="cls-4" d="M10.06,8.88V8.79a1.28,1.28,0,0,0-1,0,1.31,1.31,0,0,1-.87,0v.08a1.51,1.51,0,0,0,.89,0A1.15,1.15,0,0,1,10.06,8.88Z"/><path class="cls-4" d="M11.4,7.49a1.59,1.59,0,0,0,.89,0V7.45a1.38,1.38,0,0,1-.87,0,1.33,1.33,0,0,0-1,0v.09A1.15,1.15,0,0,1,11.4,7.49Z"/><path class="cls-4" d="M11.4,8.85a1.51,1.51,0,0,0,.89,0V8.81a1.31,1.31,0,0,1-.87,0,1.28,1.28,0,0,0-1,0v.09A1.15,1.15,0,0,1,11.4,8.85Z"/></g></g></svg>